<mxfile host="app.diagrams.net" modified="2021-08-20T03:28:00.627Z" agent="5.0 (Windows NT 10.0; WOW64) AppleWebKit/537.36 (KHTML, like Gecko) Chrome/69.0.3947.100 Safari/537.36" etag="vjUtmDGahU8J2mqtbsdp" version="14.9.8" type="github">
  <diagram id="ucmeDUE8PjvUyTsY_A71" name="Page-1">
    <mxGraphModel dx="2630" dy="31" grid="1" gridSize="10" guides="1" tooltips="1" connect="1" arrows="1" fold="1" page="1" pageScale="1" pageWidth="827" pageHeight="1169" math="0" shadow="0">
      <root>
        <mxCell id="0" />
        <mxCell id="1" parent="0" />
        <mxCell id="WGSE6rdhL_hBCYRlnlbb-158" style="edgeStyle=orthogonalEdgeStyle;rounded=0;orthogonalLoop=1;jettySize=auto;html=1;" parent="1" edge="1">
          <mxGeometry relative="1" as="geometry">
            <mxPoint x="-461.0799999999999" y="1565.81" as="targetPoint" />
            <mxPoint x="-572" y="1566" as="sourcePoint" />
            <Array as="points">
              <mxPoint x="-492" y="1566" />
              <mxPoint x="-492" y="1566" />
            </Array>
          </mxGeometry>
        </mxCell>
        <mxCell id="WGSE6rdhL_hBCYRlnlbb-159" style="edgeStyle=orthogonalEdgeStyle;rounded=0;orthogonalLoop=1;jettySize=auto;html=1;entryX=0;entryY=0.5;entryDx=0;entryDy=0;exitX=0;exitY=0;exitDx=30.922242314647377;exitDy=56.42857142857143;exitPerimeter=0;fillColor=#dae8fc;strokeColor=#6c8ebf;strokeWidth=2;" parent="1" source="WGSE6rdhL_hBCYRlnlbb-162" target="WGSE6rdhL_hBCYRlnlbb-167" edge="1">
          <mxGeometry relative="1" as="geometry">
            <mxPoint x="-609.0799999999999" y="1565.81" as="sourcePoint" />
          </mxGeometry>
        </mxCell>
        <mxCell id="GUt-SkPFksqqKjLSICWc-8" style="edgeStyle=orthogonalEdgeStyle;rounded=0;orthogonalLoop=1;jettySize=auto;html=1;exitX=0;exitY=0;exitDx=30.922242314647377;exitDy=56.42857142857143;exitPerimeter=0;entryX=0;entryY=0.5;entryDx=0;entryDy=0;strokeColor=#6C8EBF;strokeWidth=2;" edge="1" parent="1">
          <mxGeometry relative="1" as="geometry">
            <mxPoint x="-622.9977396021704" y="1610.639365079365" as="sourcePoint" />
            <mxPoint x="-152.07641952982613" y="1754.5981052843076" as="targetPoint" />
            <Array as="points">
              <mxPoint x="-573" y="1611" />
              <mxPoint x="-573" y="1755" />
            </Array>
          </mxGeometry>
        </mxCell>
        <mxCell id="WGSE6rdhL_hBCYRlnlbb-162" value="" style="shape=cube;whiteSpace=wrap;html=1;boundedLbl=1;backgroundOutline=1;darkOpacity=0.05;darkOpacity2=0.1;strokeColor=#BAC8D3;strokeWidth=3;" parent="1" vertex="1">
          <mxGeometry x="-650.9199819168174" y="1554.2107936507937" width="30.922242314647377" height="92.85714285714286" as="geometry" />
        </mxCell>
        <mxCell id="WGSE6rdhL_hBCYRlnlbb-163" style="edgeStyle=orthogonalEdgeStyle;rounded=0;orthogonalLoop=1;jettySize=auto;html=1;exitX=1;exitY=0.5;exitDx=0;exitDy=0;fillColor=#dae8fc;strokeColor=#6c8ebf;strokeWidth=2;" parent="1" source="WGSE6rdhL_hBCYRlnlbb-167" edge="1">
          <mxGeometry relative="1" as="geometry">
            <mxPoint x="-20" y="1437" as="targetPoint" />
            <Array as="points">
              <mxPoint x="-80" y="1437" />
              <mxPoint x="-80" y="1437" />
            </Array>
          </mxGeometry>
        </mxCell>
        <mxCell id="WGSE6rdhL_hBCYRlnlbb-164" style="edgeStyle=orthogonalEdgeStyle;rounded=0;orthogonalLoop=1;jettySize=auto;html=1;exitX=1;exitY=0.5;exitDx=0;exitDy=0;entryX=0.5;entryY=0;entryDx=0;entryDy=0;fillColor=#dae8fc;strokeColor=#6c8ebf;strokeWidth=2;" parent="1" source="WGSE6rdhL_hBCYRlnlbb-167" target="WGSE6rdhL_hBCYRlnlbb-178" edge="1">
          <mxGeometry relative="1" as="geometry" />
        </mxCell>
        <mxCell id="WGSE6rdhL_hBCYRlnlbb-165" style="edgeStyle=orthogonalEdgeStyle;rounded=0;orthogonalLoop=1;jettySize=auto;html=1;exitX=1;exitY=0.5;exitDx=0;exitDy=0;entryX=0.5;entryY=0;entryDx=0;entryDy=0;fillColor=#dae8fc;strokeColor=#6c8ebf;strokeWidth=2;" parent="1" source="WGSE6rdhL_hBCYRlnlbb-167" target="WGSE6rdhL_hBCYRlnlbb-180" edge="1">
          <mxGeometry relative="1" as="geometry" />
        </mxCell>
        <mxCell id="WGSE6rdhL_hBCYRlnlbb-166" style="edgeStyle=orthogonalEdgeStyle;rounded=0;orthogonalLoop=1;jettySize=auto;html=1;exitX=1;exitY=0.5;exitDx=0;exitDy=0;entryX=1;entryY=0;entryDx=0;entryDy=0;fillColor=#dae8fc;strokeColor=#6c8ebf;strokeWidth=2;" parent="1" source="WGSE6rdhL_hBCYRlnlbb-167" target="WGSE6rdhL_hBCYRlnlbb-182" edge="1">
          <mxGeometry relative="1" as="geometry" />
        </mxCell>
        <mxCell id="WGSE6rdhL_hBCYRlnlbb-167" value="1*1&lt;br&gt;conv" style="whiteSpace=wrap;html=1;aspect=fixed;strokeWidth=1;fillColor=#ffe6cc;strokeColor=#d79b00;" parent="1" vertex="1">
          <mxGeometry x="-526.0787884267631" y="1415.81" width="41.22965641952984" height="41.22965641952984" as="geometry" />
        </mxCell>
        <mxCell id="WGSE6rdhL_hBCYRlnlbb-168" style="edgeStyle=orthogonalEdgeStyle;rounded=0;orthogonalLoop=1;jettySize=auto;html=1;exitX=1;exitY=0.5;exitDx=0;exitDy=0;strokeWidth=2;fillColor=#dae8fc;strokeColor=#6c8ebf;" parent="1" source="WGSE6rdhL_hBCYRlnlbb-171" edge="1">
          <mxGeometry relative="1" as="geometry">
            <mxPoint x="-10" y="1564" as="targetPoint" />
          </mxGeometry>
        </mxCell>
        <mxCell id="WGSE6rdhL_hBCYRlnlbb-169" style="edgeStyle=orthogonalEdgeStyle;rounded=0;orthogonalLoop=1;jettySize=auto;html=1;exitX=1;exitY=0.5;exitDx=0;exitDy=0;fillColor=#dae8fc;strokeColor=#6c8ebf;strokeWidth=2;" parent="1" source="WGSE6rdhL_hBCYRlnlbb-171" edge="1">
          <mxGeometry relative="1" as="geometry">
            <mxPoint x="-289.0799999999999" y="1625.81" as="targetPoint" />
          </mxGeometry>
        </mxCell>
        <mxCell id="WGSE6rdhL_hBCYRlnlbb-170" style="edgeStyle=orthogonalEdgeStyle;rounded=0;orthogonalLoop=1;jettySize=auto;html=1;exitX=1;exitY=0.5;exitDx=0;exitDy=0;entryX=0.5;entryY=0;entryDx=0;entryDy=0;fillColor=#dae8fc;strokeWidth=2;strokeColor=#6C8EBF;" parent="1" source="WGSE6rdhL_hBCYRlnlbb-171" target="WGSE6rdhL_hBCYRlnlbb-182" edge="1">
          <mxGeometry relative="1" as="geometry">
            <mxPoint x="-129.07999999999993" y="1715.81" as="targetPoint" />
          </mxGeometry>
        </mxCell>
        <mxCell id="WGSE6rdhL_hBCYRlnlbb-171" value="3*3&lt;br&gt;conv&lt;br&gt;rate 2" style="whiteSpace=wrap;html=1;aspect=fixed;strokeWidth=1;fillColor=#ffe6cc;strokeColor=#d79b00;" parent="1" vertex="1">
          <mxGeometry x="-386.42068716094036" y="1535.922222222222" width="56.69077757685353" height="56.69077757685353" as="geometry" />
        </mxCell>
        <mxCell id="WGSE6rdhL_hBCYRlnlbb-172" style="edgeStyle=orthogonalEdgeStyle;rounded=0;orthogonalLoop=1;jettySize=auto;html=1;exitX=1;exitY=0.5;exitDx=0;exitDy=0;fillColor=#dae8fc;strokeColor=#6c8ebf;strokeWidth=2;" parent="1" source="WGSE6rdhL_hBCYRlnlbb-174" edge="1">
          <mxGeometry relative="1" as="geometry">
            <mxPoint x="-10" y="1647" as="targetPoint" />
          </mxGeometry>
        </mxCell>
        <mxCell id="WGSE6rdhL_hBCYRlnlbb-173" style="edgeStyle=orthogonalEdgeStyle;rounded=0;orthogonalLoop=1;jettySize=auto;html=1;exitX=1;exitY=0.5;exitDx=0;exitDy=0;entryX=0.261;entryY=-0.101;entryDx=0;entryDy=0;entryPerimeter=0;fillColor=#dae8fc;strokeColor=#6c8ebf;strokeWidth=2;" parent="1" source="WGSE6rdhL_hBCYRlnlbb-174" target="WGSE6rdhL_hBCYRlnlbb-182" edge="1">
          <mxGeometry relative="1" as="geometry">
            <mxPoint x="-139.07999999999993" y="1715.81" as="targetPoint" />
          </mxGeometry>
        </mxCell>
        <mxCell id="WGSE6rdhL_hBCYRlnlbb-174" value="3*3&lt;br&gt;conv&lt;br&gt;rate 4" style="whiteSpace=wrap;html=1;aspect=fixed;strokeWidth=1;fillColor=#ffe6cc;strokeColor=#d79b00;" parent="1" vertex="1">
          <mxGeometry x="-239.07544303797465" y="1612.2373015873015" width="69.5750452079566" height="69.5750452079566" as="geometry" />
        </mxCell>
        <mxCell id="WGSE6rdhL_hBCYRlnlbb-175" style="edgeStyle=orthogonalEdgeStyle;rounded=0;orthogonalLoop=1;jettySize=auto;html=1;exitX=1;exitY=0.5;exitDx=0;exitDy=0;fillColor=#dae8fc;strokeColor=#6c8ebf;strokeWidth=2;" parent="1" source="WGSE6rdhL_hBCYRlnlbb-176" edge="1">
          <mxGeometry relative="1" as="geometry">
            <mxPoint x="-10" y="1762" as="targetPoint" />
          </mxGeometry>
        </mxCell>
        <mxCell id="WGSE6rdhL_hBCYRlnlbb-176" value="3*3&lt;br&gt;conv&lt;br&gt;rate 6" style="whiteSpace=wrap;html=1;aspect=fixed;strokeWidth=1;fillColor=#ffe6cc;strokeColor=#d79b00;" parent="1" vertex="1">
          <mxGeometry x="-97.07544303797465" y="1726.5573015873017" width="69.5750452079566" height="69.5750452079566" as="geometry" />
        </mxCell>
        <mxCell id="WGSE6rdhL_hBCYRlnlbb-177" style="edgeStyle=orthogonalEdgeStyle;rounded=0;orthogonalLoop=1;jettySize=auto;html=1;exitX=1;exitY=0.5;exitDx=0;exitDy=0;entryX=0;entryY=0.5;entryDx=0;entryDy=0;fillColor=#dae8fc;strokeColor=#6c8ebf;strokeWidth=2;" parent="1" source="WGSE6rdhL_hBCYRlnlbb-178" target="WGSE6rdhL_hBCYRlnlbb-171" edge="1">
          <mxGeometry relative="1" as="geometry" />
        </mxCell>
        <mxCell id="WGSE6rdhL_hBCYRlnlbb-178" value="C" style="ellipse;whiteSpace=wrap;html=1;aspect=fixed;strokeColor=#23445d;strokeWidth=1;fillColor=#bac8d3;" parent="1" vertex="1">
          <mxGeometry x="-453.07641952983727" y="1548.806984126984" width="30.922242314647377" height="30.922242314647377" as="geometry" />
        </mxCell>
        <mxCell id="WGSE6rdhL_hBCYRlnlbb-236" style="edgeStyle=orthogonalEdgeStyle;rounded=0;orthogonalLoop=1;jettySize=auto;html=1;exitX=1;exitY=0.5;exitDx=0;exitDy=0;fillColor=#dae8fc;strokeColor=#6c8ebf;strokeWidth=2;" parent="1" source="WGSE6rdhL_hBCYRlnlbb-180" edge="1">
          <mxGeometry relative="1" as="geometry">
            <mxPoint x="-240" y="1647" as="targetPoint" />
          </mxGeometry>
        </mxCell>
        <mxCell id="WGSE6rdhL_hBCYRlnlbb-180" value="C" style="ellipse;whiteSpace=wrap;html=1;aspect=fixed;strokeColor=#23445d;strokeWidth=1;fillColor=#bac8d3;" parent="1" vertex="1">
          <mxGeometry x="-299.07641952983727" y="1631.806984126984" width="30.922242314647377" height="30.922242314647377" as="geometry" />
        </mxCell>
        <mxCell id="WGSE6rdhL_hBCYRlnlbb-181" style="edgeStyle=orthogonalEdgeStyle;rounded=0;orthogonalLoop=1;jettySize=auto;html=1;exitX=1;exitY=0.5;exitDx=0;exitDy=0;entryX=-0.014;entryY=0.406;entryDx=0;entryDy=0;entryPerimeter=0;fillColor=#dae8fc;strokeColor=#6c8ebf;strokeWidth=2;" parent="1" source="WGSE6rdhL_hBCYRlnlbb-182" target="WGSE6rdhL_hBCYRlnlbb-176" edge="1">
          <mxGeometry relative="1" as="geometry" />
        </mxCell>
        <mxCell id="WGSE6rdhL_hBCYRlnlbb-182" value="C" style="ellipse;whiteSpace=wrap;html=1;aspect=fixed;strokeColor=#23445d;strokeWidth=1;fillColor=#bac8d3;" parent="1" vertex="1">
          <mxGeometry x="-149.07641952983727" y="1739.1369841269839" width="30.922242314647377" height="30.922242314647377" as="geometry" />
        </mxCell>
        <mxCell id="WGSE6rdhL_hBCYRlnlbb-183" style="edgeStyle=orthogonalEdgeStyle;rounded=0;orthogonalLoop=1;jettySize=auto;html=1;exitX=0;exitY=0;exitDx=30.922242314647377;exitDy=56.42857142857143;exitPerimeter=0;fillColor=#dae8fc;strokeColor=#6c8ebf;strokeWidth=2;" parent="1" source="WGSE6rdhL_hBCYRlnlbb-184" edge="1">
          <mxGeometry relative="1" as="geometry">
            <mxPoint x="170.92000000000007" y="1446.81" as="targetPoint" />
          </mxGeometry>
        </mxCell>
        <mxCell id="WGSE6rdhL_hBCYRlnlbb-184" value="" style="shape=cube;whiteSpace=wrap;html=1;boundedLbl=1;backgroundOutline=1;darkOpacity=0.05;darkOpacity2=0.1;strokeColor=#6c8ebf;strokeWidth=3;fillColor=#dae8fc;" parent="1" vertex="1">
          <mxGeometry x="0.9200180831825264" y="1390.0007936507936" width="30.922242314647377" height="92.85714285714286" as="geometry" />
        </mxCell>
        <mxCell id="WGSE6rdhL_hBCYRlnlbb-185" style="edgeStyle=orthogonalEdgeStyle;rounded=0;orthogonalLoop=1;jettySize=auto;html=1;exitX=0;exitY=0;exitDx=30.922242314647377;exitDy=56.42857142857143;exitPerimeter=0;entryX=0.065;entryY=0.517;entryDx=0;entryDy=0;entryPerimeter=0;fillColor=#dae8fc;strokeColor=#6c8ebf;strokeWidth=2;" parent="1" source="WGSE6rdhL_hBCYRlnlbb-186" edge="1">
          <mxGeometry relative="1" as="geometry">
            <mxPoint x="172.9299638336347" y="1573.8179365079363" as="targetPoint" />
          </mxGeometry>
        </mxCell>
        <mxCell id="WGSE6rdhL_hBCYRlnlbb-186" value="" style="shape=cube;whiteSpace=wrap;html=1;boundedLbl=1;backgroundOutline=1;darkOpacity=0.05;darkOpacity2=0.1;strokeColor=#6c8ebf;strokeWidth=3;fillColor=#dae8fc;" parent="1" vertex="1">
          <mxGeometry x="0.9200180831825264" y="1517.8407936507938" width="30.922242314647377" height="92.85714285714286" as="geometry" />
        </mxCell>
        <mxCell id="WGSE6rdhL_hBCYRlnlbb-238" style="edgeStyle=orthogonalEdgeStyle;rounded=0;orthogonalLoop=1;jettySize=auto;html=1;fillColor=#dae8fc;strokeColor=#6c8ebf;strokeWidth=2;" parent="1" edge="1">
          <mxGeometry relative="1" as="geometry">
            <mxPoint x="170" y="1670" as="targetPoint" />
            <mxPoint x="32" y="1670" as="sourcePoint" />
          </mxGeometry>
        </mxCell>
        <mxCell id="WGSE6rdhL_hBCYRlnlbb-188" value="" style="shape=cube;whiteSpace=wrap;html=1;boundedLbl=1;backgroundOutline=1;darkOpacity=0.05;darkOpacity2=0.1;strokeColor=#6c8ebf;strokeWidth=3;fillColor=#dae8fc;" parent="1" vertex="1">
          <mxGeometry x="0.9200180831825264" y="1623.7007936507937" width="30.922242314647377" height="92.85714285714286" as="geometry" />
        </mxCell>
        <mxCell id="WGSE6rdhL_hBCYRlnlbb-189" style="edgeStyle=orthogonalEdgeStyle;rounded=0;orthogonalLoop=1;jettySize=auto;html=1;exitX=0;exitY=0;exitDx=30.922242314647377;exitDy=56.42857142857143;exitPerimeter=0;entryX=-0.032;entryY=0.531;entryDx=0;entryDy=0;entryPerimeter=0;fillColor=#dae8fc;strokeColor=#6c8ebf;strokeWidth=2;" parent="1" source="WGSE6rdhL_hBCYRlnlbb-190" edge="1">
          <mxGeometry relative="1" as="geometry">
            <mxPoint x="169.930506329114" y="1783.8379365079363" as="targetPoint" />
          </mxGeometry>
        </mxCell>
        <mxCell id="WGSE6rdhL_hBCYRlnlbb-190" value="" style="shape=cube;whiteSpace=wrap;html=1;boundedLbl=1;backgroundOutline=1;darkOpacity=0.05;darkOpacity2=0.1;strokeColor=#6c8ebf;strokeWidth=3;fillColor=#dae8fc;" parent="1" vertex="1">
          <mxGeometry x="0.9200180831825264" y="1726.5607936507936" width="30.922242314647377" height="92.85714285714286" as="geometry" />
        </mxCell>
        <mxCell id="WGSE6rdhL_hBCYRlnlbb-191" value="" style="endArrow=classic;html=1;entryX=-0.065;entryY=0.579;entryDx=0;entryDy=0;entryPerimeter=0;strokeWidth=2;fillColor=#dae8fc;strokeColor=#6c8ebf;" parent="1" edge="1">
          <mxGeometry width="50" height="50" relative="1" as="geometry">
            <mxPoint x="31.840000000000146" y="1567.8400000000001" as="sourcePoint" />
            <mxPoint x="168.91007233273058" y="1453.7650793650791" as="targetPoint" />
          </mxGeometry>
        </mxCell>
        <mxCell id="WGSE6rdhL_hBCYRlnlbb-192" value="" style="endArrow=classic;html=1;fillColor=#dae8fc;strokeColor=#6c8ebf;strokeWidth=2;" parent="1" edge="1">
          <mxGeometry width="50" height="50" relative="1" as="geometry">
            <mxPoint x="32" y="1660" as="sourcePoint" />
            <mxPoint x="170.92000000000007" y="1455.81" as="targetPoint" />
          </mxGeometry>
        </mxCell>
        <mxCell id="WGSE6rdhL_hBCYRlnlbb-193" value="" style="endArrow=classic;html=1;startArrow=none;exitX=0;exitY=0;exitDx=30.922242314647377;exitDy=56.42857142857143;exitPerimeter=0;fillColor=#dae8fc;strokeColor=#6c8ebf;strokeWidth=2;" parent="1" source="WGSE6rdhL_hBCYRlnlbb-184" edge="1">
          <mxGeometry width="50" height="50" relative="1" as="geometry">
            <mxPoint x="40" y="1450" as="sourcePoint" />
            <mxPoint x="170.92000000000007" y="1565.81" as="targetPoint" />
          </mxGeometry>
        </mxCell>
        <mxCell id="WGSE6rdhL_hBCYRlnlbb-194" value="" style="endArrow=classic;html=1;exitX=0;exitY=0;exitDx=30.922242314647377;exitDy=56.42857142857143;exitPerimeter=0;fillColor=#dae8fc;strokeColor=#6c8ebf;strokeWidth=2;" parent="1" source="WGSE6rdhL_hBCYRlnlbb-190" edge="1">
          <mxGeometry width="50" height="50" relative="1" as="geometry">
            <mxPoint x="31.840000000000146" y="1753.56" as="sourcePoint" />
            <mxPoint x="170.92000000000007" y="1575.81" as="targetPoint" />
          </mxGeometry>
        </mxCell>
        <mxCell id="WGSE6rdhL_hBCYRlnlbb-195" value="" style="endArrow=classic;html=1;entryX=0.294;entryY=0.006;entryDx=0;entryDy=0;entryPerimeter=0;fillColor=#dae8fc;strokeColor=#6c8ebf;strokeWidth=2;" parent="1" target="WGSE6rdhL_hBCYRlnlbb-205" edge="1">
          <mxGeometry width="50" height="50" relative="1" as="geometry">
            <mxPoint x="30" y="1450" as="sourcePoint" />
            <mxPoint x="170.92001808318264" y="1655.0993650793648" as="targetPoint" />
          </mxGeometry>
        </mxCell>
        <mxCell id="WGSE6rdhL_hBCYRlnlbb-196" value="" style="endArrow=classic;html=1;exitX=0;exitY=0;exitDx=30.922242314647377;exitDy=56.42857142857143;exitPerimeter=0;fillColor=#dae8fc;strokeColor=#6c8ebf;strokeWidth=2;" parent="1" source="WGSE6rdhL_hBCYRlnlbb-190" edge="1">
          <mxGeometry width="50" height="50" relative="1" as="geometry">
            <mxPoint x="31.840000000000146" y="1756.6" as="sourcePoint" />
            <mxPoint x="170.92000000000007" y="1675.81" as="targetPoint" />
          </mxGeometry>
        </mxCell>
        <mxCell id="WGSE6rdhL_hBCYRlnlbb-197" value="" style="endArrow=classic;html=1;entryX=0;entryY=0;entryDx=0;entryDy=0;fillColor=#dae8fc;strokeColor=#6c8ebf;strokeWidth=2;" parent="1" target="WGSE6rdhL_hBCYRlnlbb-207" edge="1">
          <mxGeometry width="50" height="50" relative="1" as="geometry">
            <mxPoint x="30.920000000000073" y="1575.81" as="sourcePoint" />
            <mxPoint x="170.92001808318264" y="1747.959365079365" as="targetPoint" />
          </mxGeometry>
        </mxCell>
        <mxCell id="WGSE6rdhL_hBCYRlnlbb-198" value="" style="endArrow=classic;html=1;exitX=0;exitY=0;exitDx=30.922242314647377;exitDy=56.42857142857143;exitPerimeter=0;fillColor=#dae8fc;strokeColor=#6c8ebf;strokeWidth=2;" parent="1" source="WGSE6rdhL_hBCYRlnlbb-188" edge="1">
          <mxGeometry width="50" height="50" relative="1" as="geometry">
            <mxPoint x="31.840000000000146" y="1668" as="sourcePoint" />
            <mxPoint x="171" y="1770" as="targetPoint" />
          </mxGeometry>
        </mxCell>
        <mxCell id="WGSE6rdhL_hBCYRlnlbb-199" value="" style="shape=cube;whiteSpace=wrap;html=1;boundedLbl=1;backgroundOutline=1;darkOpacity=0.05;darkOpacity2=0.1;strokeColor=#666666;strokeWidth=3;fillColor=#f5f5f5;fontColor=#333333;" parent="1" vertex="1">
          <mxGeometry x="520.0000180831826" y="1600.8407936507933" width="30.922242314647377" height="92.85714285714286" as="geometry" />
        </mxCell>
        <mxCell id="WGSE6rdhL_hBCYRlnlbb-200" style="edgeStyle=orthogonalEdgeStyle;rounded=0;orthogonalLoop=1;jettySize=auto;html=1;exitX=1;exitY=0.5;exitDx=0;exitDy=0;entryX=-0.065;entryY=0.657;entryDx=0;entryDy=0;entryPerimeter=0;fillColor=#dae8fc;strokeColor=#6c8ebf;strokeWidth=2;" parent="1" source="WGSE6rdhL_hBCYRlnlbb-201" target="WGSE6rdhL_hBCYRlnlbb-223" edge="1">
          <mxGeometry relative="1" as="geometry" />
        </mxCell>
        <mxCell id="WGSE6rdhL_hBCYRlnlbb-201" value="C" style="ellipse;whiteSpace=wrap;html=1;aspect=fixed;strokeColor=#23445d;strokeWidth=1;fillColor=#bac8d3;" parent="1" vertex="1">
          <mxGeometry x="170.92358047016285" y="1435.806984126984" width="30.922242314647377" height="30.922242314647377" as="geometry" />
        </mxCell>
        <mxCell id="WGSE6rdhL_hBCYRlnlbb-202" style="edgeStyle=orthogonalEdgeStyle;rounded=0;orthogonalLoop=1;jettySize=auto;html=1;exitX=1;exitY=0.5;exitDx=0;exitDy=0;entryX=-0.129;entryY=0.56;entryDx=0;entryDy=0;entryPerimeter=0;fillColor=#dae8fc;strokeColor=#6c8ebf;strokeWidth=2;" parent="1" source="WGSE6rdhL_hBCYRlnlbb-203" target="WGSE6rdhL_hBCYRlnlbb-224" edge="1">
          <mxGeometry relative="1" as="geometry">
            <mxPoint x="240.91999999999996" y="1570.81" as="targetPoint" />
          </mxGeometry>
        </mxCell>
        <mxCell id="WGSE6rdhL_hBCYRlnlbb-203" value="C" style="ellipse;whiteSpace=wrap;html=1;aspect=fixed;strokeColor=#23445d;strokeWidth=1;fillColor=#bac8d3;" parent="1" vertex="1">
          <mxGeometry x="170.92358047016285" y="1555.806984126984" width="30.922242314647377" height="30.922242314647377" as="geometry" />
        </mxCell>
        <mxCell id="tzJaH0j9fJQoNtwnt7KF-13" style="edgeStyle=orthogonalEdgeStyle;rounded=0;orthogonalLoop=1;jettySize=auto;html=1;exitX=1;exitY=0.5;exitDx=0;exitDy=0;strokeWidth=2;fillColor=#dae8fc;strokeColor=#6c8ebf;" parent="1" source="WGSE6rdhL_hBCYRlnlbb-205" edge="1">
          <mxGeometry relative="1" as="geometry">
            <mxPoint x="240" y="1675" as="targetPoint" />
          </mxGeometry>
        </mxCell>
        <mxCell id="WGSE6rdhL_hBCYRlnlbb-205" value="C" style="ellipse;whiteSpace=wrap;html=1;aspect=fixed;strokeColor=#23445d;strokeWidth=1;fillColor=#bac8d3;" parent="1" vertex="1">
          <mxGeometry x="170.92358047016285" y="1659.806984126984" width="30.922242314647377" height="30.922242314647377" as="geometry" />
        </mxCell>
        <mxCell id="tzJaH0j9fJQoNtwnt7KF-12" style="edgeStyle=orthogonalEdgeStyle;rounded=0;orthogonalLoop=1;jettySize=auto;html=1;exitX=1;exitY=0.5;exitDx=0;exitDy=0;strokeWidth=2;fillColor=#dae8fc;strokeColor=#6c8ebf;" parent="1" source="WGSE6rdhL_hBCYRlnlbb-207" edge="1">
          <mxGeometry relative="1" as="geometry">
            <mxPoint x="240" y="1777" as="targetPoint" />
          </mxGeometry>
        </mxCell>
        <mxCell id="WGSE6rdhL_hBCYRlnlbb-207" value="C" style="ellipse;whiteSpace=wrap;html=1;aspect=fixed;strokeColor=#23445d;strokeWidth=1;fillColor=#bac8d3;" parent="1" vertex="1">
          <mxGeometry x="170.92358047016285" y="1761.526984126984" width="30.922242314647377" height="30.922242314647377" as="geometry" />
        </mxCell>
        <mxCell id="WGSE6rdhL_hBCYRlnlbb-245" style="edgeStyle=orthogonalEdgeStyle;rounded=0;orthogonalLoop=1;jettySize=auto;html=1;exitX=0;exitY=0;exitDx=30.922242314647377;exitDy=56.42857142857143;exitPerimeter=0;fillColor=#dae8fc;strokeColor=#6c8ebf;strokeWidth=2;" parent="1" source="WGSE6rdhL_hBCYRlnlbb-208" edge="1">
          <mxGeometry relative="1" as="geometry">
            <mxPoint x="310" y="1446" as="targetPoint" />
          </mxGeometry>
        </mxCell>
        <mxCell id="WGSE6rdhL_hBCYRlnlbb-208" value="" style="shape=cube;whiteSpace=wrap;html=1;boundedLbl=1;backgroundOutline=1;darkOpacity=0.05;darkOpacity2=0.1;strokeColor=#BAC8D3;strokeWidth=3;" parent="1" vertex="1">
          <mxGeometry x="244.7900180831825" y="1390.0007936507936" width="30.922242314647377" height="92.85714285714286" as="geometry" />
        </mxCell>
        <mxCell id="WGSE6rdhL_hBCYRlnlbb-244" style="edgeStyle=orthogonalEdgeStyle;rounded=0;orthogonalLoop=1;jettySize=auto;html=1;exitX=0;exitY=0;exitDx=30.922242314647377;exitDy=56.42857142857143;exitPerimeter=0;fillColor=#dae8fc;strokeColor=#6c8ebf;strokeWidth=2;" parent="1" source="WGSE6rdhL_hBCYRlnlbb-209" edge="1">
          <mxGeometry relative="1" as="geometry">
            <mxPoint x="310" y="1575" as="targetPoint" />
          </mxGeometry>
        </mxCell>
        <mxCell id="WGSE6rdhL_hBCYRlnlbb-209" value="" style="shape=cube;whiteSpace=wrap;html=1;boundedLbl=1;backgroundOutline=1;darkOpacity=0.05;darkOpacity2=0.1;strokeColor=#BAC8D3;strokeWidth=3;" parent="1" vertex="1">
          <mxGeometry x="250.25001808318254" y="1519.0307936507936" width="30.922242314647377" height="92.85714285714286" as="geometry" />
        </mxCell>
        <mxCell id="WGSE6rdhL_hBCYRlnlbb-241" style="edgeStyle=orthogonalEdgeStyle;rounded=0;orthogonalLoop=1;jettySize=auto;html=1;exitX=0;exitY=0;exitDx=30.922242314647377;exitDy=56.42857142857143;exitPerimeter=0;" parent="1" source="WGSE6rdhL_hBCYRlnlbb-210" edge="1">
          <mxGeometry relative="1" as="geometry">
            <mxPoint x="310" y="1790" as="targetPoint" />
          </mxGeometry>
        </mxCell>
        <mxCell id="WGSE6rdhL_hBCYRlnlbb-210" value="" style="shape=cube;whiteSpace=wrap;html=1;boundedLbl=1;backgroundOutline=1;darkOpacity=0.05;darkOpacity2=0.1;strokeColor=#BAC8D3;strokeWidth=3;" parent="1" vertex="1">
          <mxGeometry x="250.25001808318254" y="1733.3279365079366" width="30.922242314647377" height="92.85714285714286" as="geometry" />
        </mxCell>
        <mxCell id="WGSE6rdhL_hBCYRlnlbb-242" style="edgeStyle=orthogonalEdgeStyle;rounded=0;orthogonalLoop=1;jettySize=auto;html=1;exitX=0;exitY=0;exitDx=30.922242314647377;exitDy=56.42857142857143;exitPerimeter=0;fillColor=#dae8fc;strokeColor=#6c8ebf;strokeWidth=2;" parent="1" source="WGSE6rdhL_hBCYRlnlbb-211" edge="1">
          <mxGeometry relative="1" as="geometry">
            <mxPoint x="310" y="1676" as="targetPoint" />
          </mxGeometry>
        </mxCell>
        <mxCell id="WGSE6rdhL_hBCYRlnlbb-211" value="" style="shape=cube;whiteSpace=wrap;html=1;boundedLbl=1;backgroundOutline=1;darkOpacity=0.05;darkOpacity2=0.1;strokeColor=#BAC8D3;strokeWidth=3;" parent="1" vertex="1">
          <mxGeometry x="250.25001808318254" y="1619.9979365079366" width="30.922242314647377" height="92.85714285714286" as="geometry" />
        </mxCell>
        <mxCell id="WGSE6rdhL_hBCYRlnlbb-219" value="" style="shape=cube;whiteSpace=wrap;html=1;boundedLbl=1;backgroundOutline=1;darkOpacity=0.05;darkOpacity2=0.1;strokeColor=#6c8ebf;strokeWidth=3;fillColor=#dae8fc;" parent="1" vertex="1">
          <mxGeometry x="-9.999981916817475" y="1390.0007936507936" width="30.922242314647377" height="92.85714285714286" as="geometry" />
        </mxCell>
        <mxCell id="WGSE6rdhL_hBCYRlnlbb-220" value="" style="shape=cube;whiteSpace=wrap;html=1;boundedLbl=1;backgroundOutline=1;darkOpacity=0.05;darkOpacity2=0.1;strokeColor=#6c8ebf;strokeWidth=3;fillColor=#dae8fc;" parent="1" vertex="1">
          <mxGeometry x="-9.999981916817475" y="1517.8407936507938" width="30.922242314647377" height="92.85714285714286" as="geometry" />
        </mxCell>
        <mxCell id="WGSE6rdhL_hBCYRlnlbb-221" value="" style="shape=cube;whiteSpace=wrap;html=1;boundedLbl=1;backgroundOutline=1;darkOpacity=0.05;darkOpacity2=0.1;strokeColor=#6c8ebf;strokeWidth=3;fillColor=#dae8fc;" parent="1" vertex="1">
          <mxGeometry x="-9.999981916817475" y="1623.7007936507937" width="30.922242314647377" height="92.85714285714286" as="geometry" />
        </mxCell>
        <mxCell id="WGSE6rdhL_hBCYRlnlbb-222" value="" style="shape=cube;whiteSpace=wrap;html=1;boundedLbl=1;backgroundOutline=1;darkOpacity=0.05;darkOpacity2=0.1;strokeColor=#6c8ebf;strokeWidth=3;fillColor=#dae8fc;" parent="1" vertex="1">
          <mxGeometry x="-9.999981916817475" y="1726.5607936507936" width="30.922242314647377" height="92.85714285714286" as="geometry" />
        </mxCell>
        <mxCell id="WGSE6rdhL_hBCYRlnlbb-223" value="" style="shape=cube;whiteSpace=wrap;html=1;boundedLbl=1;backgroundOutline=1;darkOpacity=0.05;darkOpacity2=0.1;strokeColor=#BAC8D3;strokeWidth=3;" parent="1" vertex="1">
          <mxGeometry x="233.90001808318252" y="1390.0007936507936" width="30.922242314647377" height="92.85714285714286" as="geometry" />
        </mxCell>
        <mxCell id="WGSE6rdhL_hBCYRlnlbb-224" value="" style="shape=cube;whiteSpace=wrap;html=1;boundedLbl=1;backgroundOutline=1;darkOpacity=0.05;darkOpacity2=0.1;strokeColor=#BAC8D3;strokeWidth=3;" parent="1" vertex="1">
          <mxGeometry x="240.00001808318254" y="1519.0307936507936" width="30.922242314647377" height="92.85714285714286" as="geometry" />
        </mxCell>
        <mxCell id="WGSE6rdhL_hBCYRlnlbb-225" value="" style="shape=cube;whiteSpace=wrap;html=1;boundedLbl=1;backgroundOutline=1;darkOpacity=0.05;darkOpacity2=0.1;strokeColor=#BAC8D3;strokeWidth=3;" parent="1" vertex="1">
          <mxGeometry x="240.00001808318254" y="1619.9979365079366" width="30.922242314647377" height="92.85714285714286" as="geometry" />
        </mxCell>
        <mxCell id="WGSE6rdhL_hBCYRlnlbb-226" value="" style="shape=cube;whiteSpace=wrap;html=1;boundedLbl=1;backgroundOutline=1;darkOpacity=0.05;darkOpacity2=0.1;strokeColor=#BAC8D3;strokeWidth=3;" parent="1" vertex="1">
          <mxGeometry x="240.00001808318254" y="1733.3279365079366" width="30.922242314647377" height="92.85714285714286" as="geometry" />
        </mxCell>
        <mxCell id="WGSE6rdhL_hBCYRlnlbb-246" style="edgeStyle=orthogonalEdgeStyle;rounded=0;orthogonalLoop=1;jettySize=auto;html=1;exitX=1;exitY=0.5;exitDx=0;exitDy=0;entryX=0;entryY=0.5;entryDx=0;entryDy=0;fillColor=#dae8fc;strokeColor=#6c8ebf;strokeWidth=2;" parent="1" source="WGSE6rdhL_hBCYRlnlbb-228" target="WGSE6rdhL_hBCYRlnlbb-240" edge="1">
          <mxGeometry relative="1" as="geometry" />
        </mxCell>
        <mxCell id="WGSE6rdhL_hBCYRlnlbb-228" value="A" style="ellipse;whiteSpace=wrap;html=1;aspect=fixed;strokeColor=#36393d;strokeWidth=1;fillColor=#cce5ff;" parent="1" vertex="1">
          <mxGeometry x="313.92358047016285" y="1431.1169841269839" width="30.922242314647377" height="30.922242314647377" as="geometry" />
        </mxCell>
        <mxCell id="WGSE6rdhL_hBCYRlnlbb-267" style="edgeStyle=orthogonalEdgeStyle;rounded=0;orthogonalLoop=1;jettySize=auto;html=1;exitX=1;exitY=0.5;exitDx=0;exitDy=0;entryX=0;entryY=0.5;entryDx=0;entryDy=0;fillColor=#dae8fc;strokeColor=#6c8ebf;strokeWidth=2;" parent="1" source="WGSE6rdhL_hBCYRlnlbb-229" target="WGSE6rdhL_hBCYRlnlbb-263" edge="1">
          <mxGeometry relative="1" as="geometry" />
        </mxCell>
        <mxCell id="WGSE6rdhL_hBCYRlnlbb-229" value="A" style="ellipse;whiteSpace=wrap;html=1;aspect=fixed;strokeColor=#36393d;strokeWidth=1;fillColor=#cce5ff;" parent="1" vertex="1">
          <mxGeometry x="313.92358047016285" y="1661.126984126984" width="30.922242314647377" height="30.922242314647377" as="geometry" />
        </mxCell>
        <mxCell id="WGSE6rdhL_hBCYRlnlbb-230" value="A" style="ellipse;whiteSpace=wrap;html=1;aspect=fixed;strokeColor=#36393d;strokeWidth=1;fillColor=#cce5ff;" parent="1" vertex="1">
          <mxGeometry x="313.92358047016285" y="1561.686984126984" width="30.922242314647377" height="30.922242314647377" as="geometry" />
        </mxCell>
        <mxCell id="WGSE6rdhL_hBCYRlnlbb-272" style="edgeStyle=orthogonalEdgeStyle;rounded=0;orthogonalLoop=1;jettySize=auto;html=1;exitX=1;exitY=0.5;exitDx=0;exitDy=0;entryX=0;entryY=0.5;entryDx=0;entryDy=0;fillColor=#dae8fc;strokeColor=#6c8ebf;strokeWidth=2;" parent="1" source="WGSE6rdhL_hBCYRlnlbb-231" target="WGSE6rdhL_hBCYRlnlbb-268" edge="1">
          <mxGeometry relative="1" as="geometry" />
        </mxCell>
        <mxCell id="WGSE6rdhL_hBCYRlnlbb-231" value="A" style="ellipse;whiteSpace=wrap;html=1;aspect=fixed;strokeColor=#36393d;strokeWidth=1;fillColor=#cce5ff;" parent="1" vertex="1">
          <mxGeometry x="313.92358047016285" y="1774.056984126984" width="30.922242314647377" height="30.922242314647377" as="geometry" />
        </mxCell>
        <mxCell id="WGSE6rdhL_hBCYRlnlbb-240" value="x" style="ellipse;whiteSpace=wrap;html=1;aspect=fixed;strokeColor=#36393d;strokeWidth=1;fillColor=#ffcc99;" parent="1" vertex="1">
          <mxGeometry x="370" y="1438.1599999999999" width="18.88" height="18.88" as="geometry" />
        </mxCell>
        <mxCell id="WGSE6rdhL_hBCYRlnlbb-248" value="" style="endArrow=none;html=1;fillColor=#dae8fc;strokeColor=#6c8ebf;strokeWidth=2;" parent="1" edge="1">
          <mxGeometry width="50" height="50" relative="1" as="geometry">
            <mxPoint x="290" y="1446" as="sourcePoint" />
            <mxPoint x="290" y="1420" as="targetPoint" />
          </mxGeometry>
        </mxCell>
        <mxCell id="WGSE6rdhL_hBCYRlnlbb-249" value="" style="endArrow=none;html=1;fillColor=#dae8fc;strokeColor=#6c8ebf;strokeWidth=2;" parent="1" edge="1">
          <mxGeometry width="50" height="50" relative="1" as="geometry">
            <mxPoint x="290" y="1420" as="sourcePoint" />
            <mxPoint x="380" y="1420" as="targetPoint" />
          </mxGeometry>
        </mxCell>
        <mxCell id="WGSE6rdhL_hBCYRlnlbb-250" value="" style="endArrow=classic;html=1;fillColor=#dae8fc;strokeColor=#6c8ebf;strokeWidth=2;" parent="1" edge="1">
          <mxGeometry width="50" height="50" relative="1" as="geometry">
            <mxPoint x="380" y="1420" as="sourcePoint" />
            <mxPoint x="380" y="1440" as="targetPoint" />
          </mxGeometry>
        </mxCell>
        <mxCell id="WGSE6rdhL_hBCYRlnlbb-251" value="x" style="ellipse;whiteSpace=wrap;html=1;aspect=fixed;strokeColor=#36393d;strokeWidth=1;fillColor=#ffcc99;" parent="1" vertex="1">
          <mxGeometry x="370" y="1566.9699999999998" width="18.88" height="18.88" as="geometry" />
        </mxCell>
        <mxCell id="WGSE6rdhL_hBCYRlnlbb-252" value="" style="endArrow=none;html=1;" parent="1" edge="1">
          <mxGeometry width="50" height="50" relative="1" as="geometry">
            <mxPoint x="290" y="1574.81" as="sourcePoint" />
            <mxPoint x="290" y="1548.81" as="targetPoint" />
          </mxGeometry>
        </mxCell>
        <mxCell id="WGSE6rdhL_hBCYRlnlbb-253" value="" style="endArrow=none;html=1;" parent="1" edge="1">
          <mxGeometry width="50" height="50" relative="1" as="geometry">
            <mxPoint x="290" y="1548.81" as="sourcePoint" />
            <mxPoint x="380" y="1548.81" as="targetPoint" />
          </mxGeometry>
        </mxCell>
        <mxCell id="WGSE6rdhL_hBCYRlnlbb-256" value="" style="endArrow=classic;html=1;fillColor=#dae8fc;strokeColor=#6c8ebf;strokeWidth=2;" parent="1" edge="1">
          <mxGeometry width="50" height="50" relative="1" as="geometry">
            <mxPoint x="380" y="1548.81" as="sourcePoint" />
            <mxPoint x="380" y="1570" as="targetPoint" />
          </mxGeometry>
        </mxCell>
        <mxCell id="WGSE6rdhL_hBCYRlnlbb-259" style="edgeStyle=orthogonalEdgeStyle;rounded=0;orthogonalLoop=1;jettySize=auto;html=1;exitX=1;exitY=0.5;exitDx=0;exitDy=0;entryX=0;entryY=0.5;entryDx=0;entryDy=0;fillColor=#dae8fc;strokeColor=#6c8ebf;strokeWidth=2;" parent="1" edge="1">
          <mxGeometry relative="1" as="geometry">
            <mxPoint x="344.8458227847923" y="1576.6481052843078" as="sourcePoint" />
            <mxPoint x="370.00000000005866" y="1575.9099999999999" as="targetPoint" />
          </mxGeometry>
        </mxCell>
        <mxCell id="WGSE6rdhL_hBCYRlnlbb-260" value="" style="endArrow=none;html=1;fillColor=#dae8fc;strokeColor=#6c8ebf;strokeWidth=2;" parent="1" edge="1">
          <mxGeometry width="50" height="50" relative="1" as="geometry">
            <mxPoint x="290" y="1548.81" as="sourcePoint" />
            <mxPoint x="380" y="1548.81" as="targetPoint" />
          </mxGeometry>
        </mxCell>
        <mxCell id="WGSE6rdhL_hBCYRlnlbb-261" value="" style="endArrow=none;html=1;fillColor=#dae8fc;strokeColor=#6c8ebf;strokeWidth=2;" parent="1" edge="1">
          <mxGeometry width="50" height="50" relative="1" as="geometry">
            <mxPoint x="290" y="1574.81" as="sourcePoint" />
            <mxPoint x="290" y="1548.81" as="targetPoint" />
          </mxGeometry>
        </mxCell>
        <mxCell id="WGSE6rdhL_hBCYRlnlbb-263" value="x" style="ellipse;whiteSpace=wrap;html=1;aspect=fixed;strokeColor=#36393d;strokeWidth=1;fillColor=#ffcc99;" parent="1" vertex="1">
          <mxGeometry x="370" y="1667.0699999999997" width="18.88" height="18.88" as="geometry" />
        </mxCell>
        <mxCell id="WGSE6rdhL_hBCYRlnlbb-264" value="" style="endArrow=none;html=1;fillColor=#dae8fc;strokeColor=#6c8ebf;strokeWidth=2;" parent="1" edge="1">
          <mxGeometry width="50" height="50" relative="1" as="geometry">
            <mxPoint x="290" y="1648.9099999999999" as="sourcePoint" />
            <mxPoint x="380" y="1648.9099999999999" as="targetPoint" />
          </mxGeometry>
        </mxCell>
        <mxCell id="WGSE6rdhL_hBCYRlnlbb-265" value="" style="endArrow=none;html=1;fillColor=#dae8fc;strokeColor=#6c8ebf;strokeWidth=2;" parent="1" edge="1">
          <mxGeometry width="50" height="50" relative="1" as="geometry">
            <mxPoint x="290" y="1674.9099999999999" as="sourcePoint" />
            <mxPoint x="290" y="1648.9099999999999" as="targetPoint" />
          </mxGeometry>
        </mxCell>
        <mxCell id="WGSE6rdhL_hBCYRlnlbb-266" value="" style="endArrow=classic;html=1;fillColor=#dae8fc;strokeColor=#6c8ebf;strokeWidth=2;" parent="1" edge="1">
          <mxGeometry width="50" height="50" relative="1" as="geometry">
            <mxPoint x="380" y="1648.9099999999999" as="sourcePoint" />
            <mxPoint x="380" y="1670.1" as="targetPoint" />
          </mxGeometry>
        </mxCell>
        <mxCell id="WGSE6rdhL_hBCYRlnlbb-268" value="x" style="ellipse;whiteSpace=wrap;html=1;aspect=fixed;strokeColor=#36393d;strokeWidth=1;fillColor=#ffcc99;" parent="1" vertex="1">
          <mxGeometry x="370" y="1780.6899999999998" width="18.88" height="18.88" as="geometry" />
        </mxCell>
        <mxCell id="WGSE6rdhL_hBCYRlnlbb-269" value="" style="endArrow=none;html=1;fillColor=#dae8fc;strokeColor=#6c8ebf;strokeWidth=2;" parent="1" edge="1">
          <mxGeometry width="50" height="50" relative="1" as="geometry">
            <mxPoint x="290" y="1762.53" as="sourcePoint" />
            <mxPoint x="380" y="1762.53" as="targetPoint" />
          </mxGeometry>
        </mxCell>
        <mxCell id="WGSE6rdhL_hBCYRlnlbb-270" value="" style="endArrow=none;html=1;" parent="1" edge="1">
          <mxGeometry width="50" height="50" relative="1" as="geometry">
            <mxPoint x="290" y="1788.53" as="sourcePoint" />
            <mxPoint x="290" y="1762.53" as="targetPoint" />
          </mxGeometry>
        </mxCell>
        <mxCell id="WGSE6rdhL_hBCYRlnlbb-271" value="" style="endArrow=classic;html=1;fillColor=#dae8fc;strokeColor=#6c8ebf;strokeWidth=2;" parent="1" edge="1">
          <mxGeometry width="50" height="50" relative="1" as="geometry">
            <mxPoint x="380" y="1762.53" as="sourcePoint" />
            <mxPoint x="380" y="1783.72" as="targetPoint" />
          </mxGeometry>
        </mxCell>
        <mxCell id="WGSE6rdhL_hBCYRlnlbb-278" style="edgeStyle=orthogonalEdgeStyle;rounded=0;orthogonalLoop=1;jettySize=auto;html=1;exitX=1;exitY=0.5;exitDx=0;exitDy=0;fillColor=#dae8fc;strokeColor=#6c8ebf;strokeWidth=2;" parent="1" source="WGSE6rdhL_hBCYRlnlbb-273" edge="1">
          <mxGeometry relative="1" as="geometry">
            <mxPoint x="520" y="1635" as="targetPoint" />
          </mxGeometry>
        </mxCell>
        <mxCell id="WGSE6rdhL_hBCYRlnlbb-273" value="C" style="ellipse;whiteSpace=wrap;html=1;aspect=fixed;strokeColor=#23445d;strokeWidth=1;fillColor=#bac8d3;" parent="1" vertex="1">
          <mxGeometry x="460.00358047016283" y="1619.996984126984" width="30.922242314647377" height="30.922242314647377" as="geometry" />
        </mxCell>
        <mxCell id="WGSE6rdhL_hBCYRlnlbb-274" value="" style="endArrow=classic;html=1;strokeWidth=2;fillColor=#dae8fc;strokeColor=#6c8ebf;" parent="1" edge="1">
          <mxGeometry width="50" height="50" relative="1" as="geometry">
            <mxPoint x="388.88" y="1450" as="sourcePoint" />
            <mxPoint x="460" y="1630" as="targetPoint" />
          </mxGeometry>
        </mxCell>
        <mxCell id="WGSE6rdhL_hBCYRlnlbb-275" value="" style="endArrow=classic;html=1;strokeWidth=2;fillColor=#dae8fc;strokeColor=#6c8ebf;" parent="1" edge="1">
          <mxGeometry width="50" height="50" relative="1" as="geometry">
            <mxPoint x="388.88" y="1582.73" as="sourcePoint" />
            <mxPoint x="460" y="1633" as="targetPoint" />
          </mxGeometry>
        </mxCell>
        <mxCell id="WGSE6rdhL_hBCYRlnlbb-276" value="" style="endArrow=classic;html=1;entryX=0;entryY=0.5;entryDx=0;entryDy=0;fillColor=#dae8fc;strokeColor=#6c8ebf;strokeWidth=2;" parent="1" target="WGSE6rdhL_hBCYRlnlbb-273" edge="1">
          <mxGeometry width="50" height="50" relative="1" as="geometry">
            <mxPoint x="390" y="1673.7" as="sourcePoint" />
            <mxPoint x="440" y="1623.7" as="targetPoint" />
          </mxGeometry>
        </mxCell>
        <mxCell id="WGSE6rdhL_hBCYRlnlbb-277" value="" style="endArrow=classic;html=1;entryX=0;entryY=1;entryDx=0;entryDy=0;fillColor=#dae8fc;strokeColor=#6c8ebf;strokeWidth=2;" parent="1" target="WGSE6rdhL_hBCYRlnlbb-273" edge="1">
          <mxGeometry width="50" height="50" relative="1" as="geometry">
            <mxPoint x="388.88" y="1789.14" as="sourcePoint" />
            <mxPoint x="438.88" y="1739.14" as="targetPoint" />
          </mxGeometry>
        </mxCell>
        <mxCell id="tzJaH0j9fJQoNtwnt7KF-3" style="edgeStyle=orthogonalEdgeStyle;rounded=0;orthogonalLoop=1;jettySize=auto;html=1;fillColor=#dae8fc;strokeColor=#6c8ebf;strokeWidth=2;" parent="1" edge="1">
          <mxGeometry relative="1" as="geometry">
            <mxPoint x="-461.0799999999999" y="1565.97" as="targetPoint" />
            <mxPoint x="-572" y="1566.16" as="sourcePoint" />
            <Array as="points">
              <mxPoint x="-492" y="1566.16" />
              <mxPoint x="-492" y="1566.16" />
            </Array>
          </mxGeometry>
        </mxCell>
        <mxCell id="tzJaH0j9fJQoNtwnt7KF-4" value="" style="endArrow=classic;html=1;strokeWidth=2;fillColor=#dae8fc;strokeColor=#6c8ebf;" parent="1" edge="1">
          <mxGeometry width="50" height="50" relative="1" as="geometry">
            <mxPoint x="-571" y="1645" as="sourcePoint" />
            <mxPoint x="-300.08" y="1645.13" as="targetPoint" />
          </mxGeometry>
        </mxCell>
        <mxCell id="tzJaH0j9fJQoNtwnt7KF-16" value="" style="endArrow=none;html=1;fillColor=#dae8fc;strokeColor=#6c8ebf;strokeWidth=2;" parent="1" edge="1">
          <mxGeometry width="50" height="50" relative="1" as="geometry">
            <mxPoint x="290" y="1788.87" as="sourcePoint" />
            <mxPoint x="290" y="1762.87" as="targetPoint" />
          </mxGeometry>
        </mxCell>
        <mxCell id="tzJaH0j9fJQoNtwnt7KF-17" style="edgeStyle=orthogonalEdgeStyle;rounded=0;orthogonalLoop=1;jettySize=auto;html=1;exitX=0;exitY=0;exitDx=30.922242314647377;exitDy=56.42857142857143;exitPerimeter=0;fillColor=#dae8fc;strokeColor=#6c8ebf;strokeWidth=2;" parent="1" edge="1">
          <mxGeometry relative="1" as="geometry">
            <mxPoint x="310" y="1790.34" as="targetPoint" />
            <mxPoint x="281.1722603978301" y="1790.0965079365078" as="sourcePoint" />
          </mxGeometry>
        </mxCell>
        <mxCell id="tzJaH0j9fJQoNtwnt7KF-18" value="&lt;font style=&quot;font-size: 20px&quot;&gt;&lt;font style=&quot;font-size: 20px&quot;&gt;f&lt;/font&gt;&lt;sub&gt;123&lt;/sub&gt;&lt;/font&gt;" style="text;html=1;resizable=0;autosize=1;align=center;verticalAlign=middle;points=[];fillColor=none;strokeColor=none;rounded=0;" parent="1" vertex="1">
          <mxGeometry x="188.9" y="1413.1599999999999" width="50" height="30" as="geometry" />
        </mxCell>
        <mxCell id="tzJaH0j9fJQoNtwnt7KF-19" value="&lt;font face=&quot;Times New Roman&quot; style=&quot;font-size: 20px&quot;&gt;&lt;font style=&quot;font-size: 20px&quot;&gt;f&lt;/font&gt;&lt;sub&gt;124&lt;/sub&gt;&lt;/font&gt;" style="text;html=1;resizable=0;autosize=1;align=center;verticalAlign=middle;points=[];fillColor=none;strokeColor=none;rounded=0;" parent="1" vertex="1">
          <mxGeometry x="195" y="1536.6899999999998" width="50" height="30" as="geometry" />
        </mxCell>
        <mxCell id="tzJaH0j9fJQoNtwnt7KF-20" value="&lt;font style=&quot;font-size: 20px&quot;&gt;&lt;font style=&quot;font-size: 20px&quot;&gt;f&lt;/font&gt;&lt;sub&gt;134&lt;/sub&gt;&lt;/font&gt;" style="text;html=1;resizable=0;autosize=1;align=center;verticalAlign=middle;points=[];fillColor=none;strokeColor=none;rounded=0;" parent="1" vertex="1">
          <mxGeometry x="196.85" y="1642.0699999999997" width="50" height="30" as="geometry" />
        </mxCell>
        <mxCell id="tzJaH0j9fJQoNtwnt7KF-21" value="&lt;font style=&quot;font-size: 20px&quot;&gt;&lt;font style=&quot;font-size: 20px&quot;&gt;f&lt;/font&gt;&lt;sub&gt;234&lt;/sub&gt;&lt;/font&gt;" style="text;html=1;resizable=0;autosize=1;align=center;verticalAlign=middle;points=[];fillColor=none;strokeColor=none;rounded=0;" parent="1" vertex="1">
          <mxGeometry x="196.85" y="1745.06" width="50" height="30" as="geometry" />
        </mxCell>
        <mxCell id="tzJaH0j9fJQoNtwnt7KF-22" value="&lt;span style=&quot;font-size: 20px&quot;&gt;F&lt;sub&gt;1&lt;/sub&gt;&lt;/span&gt;" style="text;html=1;resizable=0;autosize=1;align=center;verticalAlign=middle;points=[];fillColor=none;strokeColor=none;rounded=0;" parent="1" vertex="1">
          <mxGeometry x="379" y="1432.6" width="40" height="30" as="geometry" />
        </mxCell>
        <mxCell id="tzJaH0j9fJQoNtwnt7KF-23" value="&lt;font face=&quot;Times New Roman&quot; style=&quot;font-size: 20px&quot;&gt;&lt;span&gt;F&lt;/span&gt;&lt;span&gt;2&lt;/span&gt;&lt;/font&gt;" style="text;html=1;resizable=0;autosize=1;align=center;verticalAlign=middle;points=[];fillColor=none;strokeColor=none;rounded=0;" parent="1" vertex="1">
          <mxGeometry x="383.88" y="1561.6899999999998" width="40" height="20" as="geometry" />
        </mxCell>
        <mxCell id="GUt-SkPFksqqKjLSICWc-1" value="C" style="ellipse;whiteSpace=wrap;html=1;aspect=fixed;strokeColor=#23445d;strokeWidth=1;fillColor=#bac8d3;" vertex="1" parent="1">
          <mxGeometry x="-640" y="1815" width="20" height="20" as="geometry" />
        </mxCell>
        <mxCell id="GUt-SkPFksqqKjLSICWc-2" value="&lt;font face=&quot;Times New Roman&quot; style=&quot;font-size: 18px&quot;&gt;Concat&lt;/font&gt;" style="text;html=1;resizable=0;autosize=1;align=center;verticalAlign=middle;points=[];fillColor=none;strokeColor=none;rounded=0;strokeWidth=2;" vertex="1" parent="1">
          <mxGeometry x="-608.08" y="1815" width="70" height="20" as="geometry" />
        </mxCell>
        <mxCell id="GUt-SkPFksqqKjLSICWc-3" value="A" style="ellipse;whiteSpace=wrap;html=1;aspect=fixed;strokeColor=#36393d;strokeWidth=1;fillColor=#cce5ff;" vertex="1" parent="1">
          <mxGeometry x="-523.08" y="1817" width="20" height="20" as="geometry" />
        </mxCell>
        <mxCell id="GUt-SkPFksqqKjLSICWc-4" value="&lt;h1 class=&quot;el-tooltip d-ib title fs-xxl line-2&quot; tabindex=&quot;0&quot; style=&quot;padding: 0px ; margin: 0px ; box-sizing: border-box ; display: inline-block ; overflow: hidden ; word-break: break-all ; outline-width: 0px ; color: rgb(34 , 34 , 38) ; background-color: rgb(255 , 255 , 255) ; font-weight: normal&quot;&gt;&lt;font style=&quot;font-size: 18px&quot;&gt;AdaptiveAvgPool2d&lt;/font&gt;&lt;/h1&gt;" style="text;html=1;resizable=0;autosize=1;align=center;verticalAlign=middle;points=[];fillColor=none;strokeColor=none;rounded=0;" vertex="1" parent="1">
          <mxGeometry x="-498.49999999999994" y="1817" width="170" height="20" as="geometry" />
        </mxCell>
        <mxCell id="GUt-SkPFksqqKjLSICWc-5" value="x" style="ellipse;whiteSpace=wrap;html=1;aspect=fixed;strokeColor=#36393d;strokeWidth=1;fillColor=#ffcc99;" vertex="1" parent="1">
          <mxGeometry x="-321" y="1816.1199999999997" width="18.88" height="18.88" as="geometry" />
        </mxCell>
        <mxCell id="GUt-SkPFksqqKjLSICWc-6" value="&lt;font face=&quot;Times New Roman&quot; style=&quot;font-size: 18px&quot;&gt;Element-wise Multiplication&lt;/font&gt;" style="text;html=1;resizable=0;autosize=1;align=center;verticalAlign=middle;points=[];fillColor=none;strokeColor=none;rounded=0;strokeWidth=2;" vertex="1" parent="1">
          <mxGeometry x="-290" y="1816.1200000000001" width="220" height="20" as="geometry" />
        </mxCell>
        <mxCell id="GUt-SkPFksqqKjLSICWc-9" value="&lt;font face=&quot;Times New Roman&quot; style=&quot;font-size: 25px&quot;&gt;&lt;font style=&quot;font-size: 25px&quot;&gt;f&lt;/font&gt;&lt;sub&gt;1&lt;/sub&gt;&lt;/font&gt;" style="text;html=1;resizable=0;autosize=1;align=center;verticalAlign=middle;points=[];fillColor=none;strokeColor=none;rounded=0;" vertex="1" parent="1">
          <mxGeometry x="-9.07999999999997" y="1418.1599999999999" width="30" height="30" as="geometry" />
        </mxCell>
        <mxCell id="GUt-SkPFksqqKjLSICWc-10" value="&lt;font style=&quot;font-size: 25px&quot;&gt;&lt;font style=&quot;font-size: 25px&quot;&gt;f&lt;/font&gt;&lt;font style=&quot;font-size: 25px&quot;&gt;&lt;sub&gt;2&lt;/sub&gt;&lt;/font&gt;&lt;/font&gt;" style="text;html=1;resizable=0;autosize=1;align=center;verticalAlign=middle;points=[];fillColor=none;strokeColor=none;rounded=0;" vertex="1" parent="1">
          <mxGeometry x="-9.07999999999997" y="1556.6899999999998" width="30" height="30" as="geometry" />
        </mxCell>
        <mxCell id="GUt-SkPFksqqKjLSICWc-11" value="&lt;font style=&quot;font-size: 25px&quot;&gt;f&lt;/font&gt;&lt;font style=&quot;font-size: 25px&quot;&gt;&lt;sub&gt;3&lt;/sub&gt;&lt;/font&gt;" style="text;html=1;resizable=0;autosize=1;align=center;verticalAlign=middle;points=[];fillColor=none;strokeColor=none;rounded=0;" vertex="1" parent="1">
          <mxGeometry x="-9.53999999999997" y="1662.0699999999997" width="30" height="30" as="geometry" />
        </mxCell>
        <mxCell id="GUt-SkPFksqqKjLSICWc-12" value="&lt;font style=&quot;font-size: 25px&quot;&gt;f&lt;/font&gt;&lt;font style=&quot;font-size: 25px&quot;&gt;&lt;sub&gt;4&lt;/sub&gt;&lt;/font&gt;" style="text;html=1;resizable=0;autosize=1;align=center;verticalAlign=middle;points=[];fillColor=none;strokeColor=none;rounded=0;" vertex="1" parent="1">
          <mxGeometry x="-9.07999999999997" y="1764.7599999999998" width="30" height="30" as="geometry" />
        </mxCell>
        <mxCell id="GUt-SkPFksqqKjLSICWc-13" value="&lt;span style=&quot;font-size: 20px&quot;&gt;F&lt;/span&gt;&lt;span style=&quot;font-size: 16.6667px&quot;&gt;3&lt;/span&gt;" style="text;html=1;resizable=0;autosize=1;align=center;verticalAlign=middle;points=[];fillColor=none;strokeColor=none;rounded=0;" vertex="1" parent="1">
          <mxGeometry x="383.88" y="1677.07" width="40" height="20" as="geometry" />
        </mxCell>
        <mxCell id="GUt-SkPFksqqKjLSICWc-14" value="&lt;font face=&quot;Times New Roman&quot;&gt;&lt;span style=&quot;font-size: 20px&quot;&gt;F&lt;/span&gt;&lt;span style=&quot;font-size: 16.6667px&quot;&gt;4&lt;/span&gt;&lt;/font&gt;" style="text;html=1;resizable=0;autosize=1;align=center;verticalAlign=middle;points=[];fillColor=none;strokeColor=none;rounded=0;" vertex="1" parent="1">
          <mxGeometry x="393.88" y="1780.13" width="30" height="20" as="geometry" />
        </mxCell>
      </root>
    </mxGraphModel>
  </diagram>
</mxfile>
